<svg width="80" height="736" viewBox="0 0 80 736" fill="none" xmlns="http://www.w3.org/2000/svg">
<g filter="url(#filter0_d_2_13)">
<rect width="64" height="720" transform="translate(8 6)" fill="white"/>
<path d="M40.75 95.75V89H49V95.75H40.75ZM31 98.75V89H39.25V98.75H31ZM40.75 107V97.25H49V107H40.75ZM31 107V100.25H39.25V107H31ZM32.5 97.25H37.75V90.5H32.5V97.25ZM42.25 105.5H47.5V98.75H42.25V105.5ZM42.25 94.25H47.5V90.5H42.25V94.25ZM32.5 105.5H37.75V101.75H32.5V105.5Z" fill="#676666"/>
<path d="M39.25 145H40.75V141.75H44V140.25H40.75V137H39.25V140.25H36V141.75H39.25V145ZM36.25 151V149H31.5C31.1 149 30.75 148.85 30.45 148.55C30.15 148.25 30 147.9 30 147.5V134.5C30 134.1 30.15 133.75 30.45 133.45C30.75 133.15 31.1 133 31.5 133H48.5C48.9 133 49.25 133.15 49.55 133.45C49.85 133.75 50 134.1 50 134.5V147.5C50 147.9 49.85 148.25 49.55 148.55C49.25 148.85 48.9 149 48.5 149H43.75V151H36.25ZM31.5 147.5H48.5V134.5H31.5V147.5ZM31.5 147.5V134.5V147.5Z" fill="#676666"/>
<path d="M32.5 239C32.0833 239 31.7292 238.854 31.4375 238.562C31.1458 238.271 31 237.917 31 237.5V222.5C31 222.083 31.1458 221.729 31.4375 221.438C31.7292 221.146 32.0833 221 32.5 221H37.625C37.7083 220.417 37.975 219.938 38.425 219.562C38.875 219.188 39.4 219 40 219C40.6 219 41.125 219.188 41.575 219.562C42.025 219.938 42.2917 220.417 42.375 221H47.5C47.9167 221 48.2708 221.146 48.5625 221.438C48.8542 221.729 49 222.083 49 222.5V237.5C49 237.917 48.8542 238.271 48.5625 238.562C48.2708 238.854 47.9167 239 47.5 239H32.5ZM32.5 237.5H47.5V222.5H32.5V237.5ZM35 235H41.825V233.5H35V235ZM35 230.75H45V229.25H35V230.75ZM35 226.5H45V225H35V226.5ZM40 222.075C40.2333 222.075 40.4375 221.987 40.6125 221.812C40.7875 221.638 40.875 221.433 40.875 221.2C40.875 220.967 40.7875 220.763 40.6125 220.588C40.4375 220.413 40.2333 220.325 40 220.325C39.7667 220.325 39.5625 220.413 39.3875 220.588C39.2125 220.763 39.125 220.967 39.125 221.2C39.125 221.433 39.2125 221.638 39.3875 221.812C39.5625 221.987 39.7667 222.075 40 222.075ZM32.5 237.5V222.5V237.5Z" fill="#676666"/>
<path d="M31 193L35.5 186L31 179H42.95C43.3167 179 43.65 179.096 43.95 179.287C44.25 179.479 44.5083 179.717 44.725 180L49 186L44.725 192C44.5083 192.283 44.25 192.521 43.95 192.712C43.65 192.904 43.3167 193 42.95 193H31ZM33.75 191.5H43.25L47.15 186L43.25 180.5H33.75L37.3 186L33.75 191.5ZM37.3 186L33.75 180.5L37.3 186L33.75 191.5L37.3 186Z" fill="#676666"/>
<path d="M37.7 544L37.2 540.85C36.8833 540.733 36.55 540.575 36.2 540.375C35.85 540.175 35.5417 539.967 35.275 539.75L32.325 541.1L30 537L32.7 535.025C32.6667 534.875 32.6458 534.704 32.6375 534.512C32.6292 534.321 32.625 534.15 32.625 534C32.625 533.85 32.6292 533.679 32.6375 533.488C32.6458 533.296 32.6667 533.125 32.7 532.975L30 531L32.325 526.9L35.275 528.25C35.5417 528.033 35.85 527.825 36.2 527.625C36.55 527.425 36.8833 527.275 37.2 527.175L37.7 524H42.3L42.8 527.15C43.1167 527.267 43.4542 527.421 43.8125 527.613C44.1708 527.804 44.475 528.017 44.725 528.25L47.675 526.9L50 531L47.3 532.925C47.3333 533.092 47.3542 533.271 47.3625 533.462C47.3708 533.654 47.375 533.833 47.375 534C47.375 534.167 47.3708 534.342 47.3625 534.525C47.3542 534.708 47.3333 534.883 47.3 535.05L50 537L47.675 541.1L44.725 539.75C44.4583 539.967 44.1542 540.179 43.8125 540.388C43.4708 540.596 43.1333 540.75 42.8 540.85L42.3 544H37.7ZM40 537.25C40.9 537.25 41.6667 536.933 42.3 536.3C42.9333 535.667 43.25 534.9 43.25 534C43.25 533.1 42.9333 532.333 42.3 531.7C41.6667 531.067 40.9 530.75 40 530.75C39.1 530.75 38.3333 531.067 37.7 531.7C37.0667 532.333 36.75 533.1 36.75 534C36.75 534.9 37.0667 535.667 37.7 536.3C38.3333 536.933 39.1 537.25 40 537.25ZM40 535.75C39.5167 535.75 39.1042 535.579 38.7625 535.238C38.4208 534.896 38.25 534.483 38.25 534C38.25 533.517 38.4208 533.104 38.7625 532.762C39.1042 532.421 39.5167 532.25 40 532.25C40.4833 532.25 40.8958 532.421 41.2375 532.762C41.5792 533.104 41.75 533.517 41.75 534C41.75 534.483 41.5792 534.896 41.2375 535.238C40.8958 535.579 40.4833 535.75 40 535.75ZM38.9 542.5H41.1L41.45 539.7C42 539.567 42.5208 539.358 43.0125 539.075C43.5042 538.792 43.95 538.45 44.35 538.05L47 539.2L48 537.4L45.65 535.675C45.7167 535.392 45.7708 535.112 45.8125 534.837C45.8542 534.562 45.875 534.283 45.875 534C45.875 533.717 45.8583 533.438 45.825 533.163C45.7917 532.888 45.7333 532.608 45.65 532.325L48 530.6L47 528.8L44.35 529.95C43.9667 529.517 43.5333 529.154 43.05 528.863C42.5667 528.571 42.0333 528.383 41.45 528.3L41.1 525.5H38.9L38.55 528.3C37.9833 528.417 37.4542 528.617 36.9625 528.9C36.4708 529.183 36.0333 529.533 35.65 529.95L33 528.8L32 530.6L34.35 532.325C34.2833 532.608 34.2292 532.888 34.1875 533.163C34.1458 533.438 34.125 533.717 34.125 534C34.125 534.283 34.1458 534.562 34.1875 534.837C34.2292 535.112 34.2833 535.392 34.35 535.675L32 537.4L33 539.2L35.65 538.05C36.05 538.45 36.4958 538.792 36.9875 539.075C37.4792 539.358 38 539.567 38.55 539.7L38.9 542.5Z" fill="#676666"/>
<path d="M44.3 447.6C44.7167 447.6 45.0875 447.438 45.4125 447.113C45.7375 446.788 45.9 446.408 45.9 445.975C45.9 445.558 45.7375 445.192 45.4125 444.875C45.0875 444.558 44.7167 444.4 44.3 444.4C43.8833 444.4 43.5125 444.558 43.1875 444.875C42.8625 445.192 42.7 445.558 42.7 445.975C42.7 446.408 42.8625 446.788 43.1875 447.113C43.5125 447.438 43.8833 447.6 44.3 447.6ZM32.5 452.175V453.5V438.5V452.175ZM32.5 455C32.1167 455 31.7708 454.85 31.4625 454.55C31.1542 454.25 31 453.9 31 453.5V438.5C31 438.117 31.1542 437.771 31.4625 437.463C31.7708 437.154 32.1167 437 32.5 437H47.5C47.9 437 48.25 437.154 48.55 437.463C48.85 437.771 49 438.117 49 438.5V441.85H47.5V438.5H32.5V453.5H47.5V450.175H49V453.5C49 453.9 48.85 454.25 48.55 454.55C48.25 454.85 47.9 455 47.5 455H32.5ZM41.45 450.675C40.8833 450.675 40.4333 450.508 40.1 450.175C39.7667 449.842 39.6 449.4 39.6 448.85V443.175C39.6 442.608 39.7667 442.162 40.1 441.838C40.4333 441.513 40.8833 441.35 41.45 441.35H48.2C48.7667 441.35 49.2167 441.513 49.55 441.838C49.8833 442.162 50.05 442.608 50.05 443.175V448.85C50.05 449.4 49.8833 449.842 49.55 450.175C49.2167 450.508 48.7667 450.675 48.2 450.675H41.45ZM48.55 449.175V442.85H41.1V449.175H48.55Z" fill="#676666"/>
<path d="M31.5 411C31.1 411 30.75 410.85 30.45 410.55C30.15 410.25 30 409.9 30 409.5V397.275C30 396.875 30.15 396.525 30.45 396.225C30.75 395.925 31.1 395.775 31.5 395.775H36.25V393.5C36.25 393.1 36.4 392.75 36.7 392.45C37 392.15 37.35 392 37.75 392H42.25C42.65 392 43 392.15 43.3 392.45C43.6 392.75 43.75 393.1 43.75 393.5V395.775H48.5C48.9 395.775 49.25 395.925 49.55 396.225C49.85 396.525 50 396.875 50 397.275V409.5C50 409.9 49.85 410.25 49.55 410.55C49.25 410.85 48.9 411 48.5 411H31.5ZM37.75 395.775H42.25V393.5H37.75V395.775ZM48.5 404.725H42.275V406.225H37.775V404.725H31.5V409.5H48.5V404.725ZM39.275 404.725H40.775V403.225H39.275V404.725ZM31.5 403.225H37.775V401.725H42.275V403.225H48.5V397.275H31.5V403.225Z" fill="#676666"/>
<path d="M31.5 499C31.1 499 30.75 498.85 30.45 498.55C30.15 498.25 30 497.9 30 497.5V488.225H31.5V497.5H42.8V499H31.5ZM34.525 496C34.125 496 33.7708 495.85 33.4625 495.55C33.1542 495.25 33 494.9 33 494.5V485.225H34.5V494.5H45.825V496H34.525ZM37.5 493C37.1 493 36.75 492.85 36.45 492.55C36.15 492.25 36 491.9 36 491.5V482.5C36 482.1 36.15 481.75 36.45 481.45C36.75 481.15 37.1 481 37.5 481H48.5C48.9 481 49.25 481.15 49.55 481.45C49.85 481.75 50 482.1 50 482.5V491.5C50 491.9 49.85 492.25 49.55 492.55C49.25 492.85 48.9 493 48.5 493H37.5ZM37.5 491.5H48.5V484.05H37.5V491.5Z" fill="#676666"/>
<path d="M33.6 321.975C32.7833 321.975 32.0875 321.687 31.5125 321.112C30.9375 320.537 30.65 319.842 30.65 319.025H29V307.5C29 307.1 29.15 306.75 29.45 306.45C29.75 306.15 30.1 306 30.5 306H44.975V310.175H47.6L51 314.7V319.025H49.225C49.225 319.842 48.9375 320.537 48.3625 321.112C47.7875 321.687 47.0917 321.975 46.275 321.975C45.4583 321.975 44.7625 321.687 44.1875 321.112C43.6125 320.537 43.325 319.842 43.325 319.025H36.55C36.55 319.842 36.2625 320.537 35.6875 321.112C35.1125 321.687 34.4167 321.975 33.6 321.975ZM33.6 320.475C34 320.475 34.3417 320.333 34.625 320.05C34.9083 319.767 35.05 319.425 35.05 319.025C35.05 318.625 34.9083 318.283 34.625 318C34.3417 317.717 34 317.575 33.6 317.575C33.2 317.575 32.8583 317.717 32.575 318C32.2917 318.283 32.15 318.625 32.15 319.025C32.15 319.425 32.2917 319.767 32.575 320.05C32.8583 320.333 33.2 320.475 33.6 320.475ZM30.5 317.525H31.05C31.3333 317.075 31.6917 316.717 32.125 316.45C32.5583 316.183 33.0417 316.05 33.575 316.05C34.1083 316.05 34.5958 316.188 35.0375 316.462C35.4792 316.737 35.8417 317.092 36.125 317.525H43.475V307.5H30.5V317.525ZM46.275 320.475C46.675 320.475 47.0167 320.333 47.3 320.05C47.5833 319.767 47.725 319.425 47.725 319.025C47.725 318.625 47.5833 318.283 47.3 318C47.0167 317.717 46.675 317.575 46.275 317.575C45.875 317.575 45.5333 317.717 45.25 318C44.9667 318.283 44.825 318.625 44.825 319.025C44.825 319.425 44.9667 319.767 45.25 320.05C45.5333 320.333 45.875 320.475 46.275 320.475ZM44.975 315.375H49.625L46.85 311.675H44.975V315.375Z" fill="#676666"/>
<path d="M47.1429 268.833L47.7381 268.238L45.9286 266.429V263.524H45.0952V266.643L47.1429 268.833ZM33.9524 277.429C34.3175 277.429 34.627 277.302 34.881 277.048C35.1349 276.794 35.2619 276.484 35.2619 276.119C35.2619 275.754 35.1349 275.444 34.881 275.19C34.627 274.937 34.3175 274.81 33.9524 274.81C33.5873 274.81 33.2778 274.937 33.0238 275.19C32.7698 275.444 32.6429 275.754 32.6429 276.119C32.6429 276.484 32.7698 276.794 33.0238 277.048C33.2778 277.302 33.5873 277.429 33.9524 277.429ZM41.2857 277.429C41.6508 277.429 41.9603 277.302 42.2143 277.048C42.4683 276.794 42.5952 276.484 42.5952 276.119C42.5952 275.754 42.4683 275.444 42.2143 275.19C41.9603 274.937 41.6508 274.81 41.2857 274.81C40.9206 274.81 40.6111 274.937 40.3571 275.19C40.1032 275.444 39.9762 275.754 39.9762 276.119C39.9762 276.484 40.1032 276.794 40.3571 277.048C40.6111 277.302 40.9206 277.429 41.2857 277.429ZM31.3333 282V279.357C30.873 279.087 30.5357 278.714 30.3214 278.238C30.1071 277.762 30 277.262 30 276.738V267.286C30 266.619 30.1944 266.052 30.5833 265.583C30.9722 265.115 31.5754 264.746 32.3929 264.476C33.2103 264.206 34.2579 264.036 35.5357 263.964C36.8135 263.893 38.3333 263.905 40.0952 264C40 264.238 39.9127 264.472 39.8333 264.702C39.754 264.933 39.6905 265.175 39.6429 265.429C37.246 265.27 35.3492 265.306 33.9524 265.536C32.5556 265.766 31.7143 266.143 31.4286 266.667H39.5476C39.5476 266.905 39.5675 267.143 39.6071 267.381C39.6468 267.619 39.6984 267.857 39.7619 268.095H31.4286V272.214H43.8333C43.9921 272.278 44.2103 272.333 44.4881 272.381C44.7659 272.429 45.0159 272.452 45.2381 272.452V276.738C45.2381 277.262 45.131 277.762 44.9167 278.238C44.7024 278.714 44.3651 279.087 43.9048 279.357V282H41.8571V280.048H33.381V282H31.3333ZM41.8571 273.643H31.4286H43.8095H41.8571ZM45.5 271.048C44.246 271.048 43.1746 270.603 42.2857 269.714C41.3968 268.825 40.9524 267.754 40.9524 266.5C40.9524 265.246 41.3968 264.183 42.2857 263.31C43.1746 262.437 44.246 262 45.5 262C46.7381 262 47.7976 262.44 48.6786 263.321C49.5595 264.202 50 265.262 50 266.5C50 267.754 49.5635 268.825 48.6905 269.714C47.8175 270.603 46.754 271.048 45.5 271.048ZM33.381 278.619H41.8571C42.4127 278.619 42.877 278.405 43.25 277.976C43.623 277.548 43.8095 277.056 43.8095 276.5V273.643H31.4286V276.5C31.4286 277.056 31.6151 277.548 31.9881 277.976C32.3611 278.405 32.8254 278.619 33.381 278.619Z" fill="#676666"/>
<path d="M33.6 365.975C32.7833 365.975 32.0875 365.687 31.5125 365.112C30.9375 364.537 30.65 363.842 30.65 363.025H29V351.5C29 351.1 29.15 350.75 29.45 350.45C29.75 350.15 30.1 350 30.5 350H44.975V354.175H47.6L51 358.7V363.025H49.225C49.225 363.842 48.9375 364.537 48.3625 365.112C47.7875 365.687 47.0917 365.975 46.275 365.975C45.4583 365.975 44.7625 365.687 44.1875 365.112C43.6125 364.537 43.325 363.842 43.325 363.025H36.55C36.55 363.842 36.2625 364.537 35.6875 365.112C35.1125 365.687 34.4166 365.975 33.6 365.975ZM33.6 364.475C34 364.475 34.3417 364.333 34.625 364.05C34.9083 363.767 35.05 363.425 35.05 363.025C35.05 362.625 34.9083 362.283 34.625 362C34.3417 361.717 34 361.575 33.6 361.575C33.2 361.575 32.8583 361.717 32.575 362C32.2917 362.283 32.15 362.625 32.15 363.025C32.15 363.425 32.2917 363.767 32.575 364.05C32.8583 364.333 33.2 364.475 33.6 364.475ZM30.5 361.525H31.05C31.3333 361.075 31.6917 360.717 32.125 360.45C32.5583 360.183 33.0416 360.05 33.575 360.05C34.1083 360.05 34.5958 360.188 35.0375 360.462C35.4791 360.737 35.8417 361.092 36.125 361.525H43.475V351.5H30.5V361.525ZM46.275 364.475C46.675 364.475 47.0166 364.333 47.3 364.05C47.5833 363.767 47.725 363.425 47.725 363.025C47.725 362.625 47.5833 362.283 47.3 362C47.0166 361.717 46.675 361.575 46.275 361.575C45.875 361.575 45.5333 361.717 45.25 362C44.9667 362.283 44.825 362.625 44.825 363.025C44.825 363.425 44.9667 363.767 45.25 364.05C45.5333 364.333 45.875 364.475 46.275 364.475ZM44.975 359.375H49.625L46.85 355.675H44.975V359.375Z" fill="#676666"/>
<path d="M36.1666 355.433L37 355.017L37.8334 355.433V353.5H36.1666V355.433ZM35.3334 357.667V357H37V357.667H35.3334ZM34.5 359C34.3666 359 34.25 358.95 34.15 358.85C34.05 358.75 34 358.633 34 358.5V353.5C34 353.367 34.05 353.25 34.15 353.15C34.25 353.05 34.3666 353 34.5 353H39.5C39.6333 353 39.75 353.05 39.85 353.15C39.95 353.25 40 353.367 40 353.5V358.5C40 358.633 39.95 358.75 39.85 358.85C39.75 358.95 39.6333 359 39.5 359H34.5ZM34.5 353.5V358.5V353.5ZM34.5 358.5H39.5V353.5H38.3334V356.242L37 355.575L35.6666 356.242V353.5H34.5V358.5Z" fill="#676666"/>
<circle cx="34" cy="49" r="9" stroke="#1AEA22" stroke-width="2"/>
<circle cx="46" cy="49" r="9" stroke="#EA1414" stroke-width="2"/>
<circle cx="40" cy="40" r="9" stroke="#2429A9" stroke-width="2"/>
</g>
<defs>
<filter id="filter0_d_2_13" x="0" y="0" width="80" height="736" filterUnits="userSpaceOnUse" color-interpolation-filters="sRGB">
<feFlood flood-opacity="0" result="BackgroundImageFix"/>
<feColorMatrix in="SourceAlpha" type="matrix" values="0 0 0 0 0 0 0 0 0 0 0 0 0 0 0 0 0 0 127 0" result="hardAlpha"/>
<feOffset dy="2"/>
<feGaussianBlur stdDeviation="4"/>
<feComposite in2="hardAlpha" operator="out"/>
<feColorMatrix type="matrix" values="0 0 0 0 0.101961 0 0 0 0 0.219608 0 0 0 0 0.458824 0 0 0 0.05 0"/>
<feBlend mode="normal" in2="BackgroundImageFix" result="effect1_dropShadow_2_13"/>
<feBlend mode="normal" in="SourceGraphic" in2="effect1_dropShadow_2_13" result="shape"/>
</filter>
</defs>
</svg>
