<svg width="148" height="48" viewBox="0 0 148 48" fill="none" xmlns="http://www.w3.org/2000/svg">
<g filter="url(#filter0_d_2_41)">
<rect x="8" y="6" width="132" height="32" rx="16" fill="white"/>
<path d="M36.5782 29.6184L31.0691 24.1143C30.6558 24.4652 30.1724 24.7389 29.6191 24.9354C29.0658 25.132 28.4744 25.2302 27.8449 25.2302C26.3195 25.2302 25.0281 24.7011 23.971 23.6428C22.9138 22.5846 22.3853 21.3077 22.3853 19.8122C22.3853 18.3167 22.9144 17.0399 23.9727 15.9816C25.0309 14.9233 26.3113 14.3942 27.8137 14.3942C29.3161 14.3942 30.593 14.9233 31.6443 15.9816C32.6956 17.0399 33.2213 18.3178 33.2213 19.8153C33.2213 20.4171 33.1266 20.9933 32.9371 21.5439C32.7476 22.0945 32.4635 22.6111 32.0845 23.0939L37.6144 28.5822L36.5782 29.6184ZM27.8259 23.8109C28.9332 23.8109 29.8728 23.4203 30.6444 22.6391C31.4161 21.8579 31.8019 20.9156 31.8019 19.8122C31.8019 18.7088 31.4158 17.7665 30.6437 16.9853C29.8715 16.2042 28.9323 15.8136 27.8259 15.8136C26.7079 15.8136 25.7582 16.2042 24.9768 16.9853C24.1953 17.7665 23.8046 18.7088 23.8046 19.8122C23.8046 20.9156 24.1951 21.8579 24.976 22.6391C25.757 23.4203 26.7069 23.8109 27.8259 23.8109Z" fill="black"/>
<line x1="52.5" y1="14" x2="52.5" y2="30" stroke="#CBCBCB"/>
<path d="M67.1193 27.9426V26.5182H68.9141V20.2827C68.9141 19.0858 69.2645 18.0169 69.9653 17.0757C70.6661 16.1346 71.5939 15.5403 72.7488 15.2928V14.7157C72.7488 14.3713 72.8716 14.0862 73.1172 13.8605C73.3629 13.6347 73.6572 13.5218 74.0002 13.5218C74.3431 13.5218 74.6374 13.6347 74.8831 13.8605C75.1287 14.0862 75.2515 14.3713 75.2515 14.7157V15.2928C76.4097 15.5403 77.3427 16.1338 78.0504 17.0732C78.7582 18.0127 79.112 19.0825 79.112 20.2827V26.5182H80.886V27.9426H67.1193ZM74.0027 30.4575C73.5468 30.4575 73.1479 30.2904 72.8062 29.9562C72.4645 29.622 72.2936 29.2203 72.2936 28.751H75.7117C75.7117 29.2226 75.5439 29.6249 75.2085 29.958C74.873 30.291 74.4711 30.4575 74.0027 30.4575ZM70.3335 26.5182H77.6877V20.2827C77.6877 19.2549 77.3335 18.3799 76.6252 17.6577C75.9168 16.9355 75.0488 16.5744 74.021 16.5744C72.9932 16.5744 72.1217 16.9355 71.4064 17.6577C70.6911 18.3799 70.3335 19.2549 70.3335 20.2827V26.5182Z" fill="black"/>
<line x1="96.5" y1="14" x2="96.5" y2="30" stroke="#CBCBCB"/>
<path d="M118.001 28.8363C117.709 28.8363 117.46 28.7327 117.254 28.5256C117.048 28.3184 116.945 28.0694 116.945 27.7785C116.945 27.4908 117.049 27.2427 117.256 27.0343C117.463 26.8259 117.711 26.7217 118.002 26.7217C118.295 26.7217 118.544 26.8267 118.748 27.0366C118.953 27.2466 119.055 27.496 119.055 27.7848C119.055 28.0737 118.952 28.3211 118.747 28.5272C118.541 28.7333 118.292 28.8363 118.001 28.8363ZM118.001 23.055C117.709 23.055 117.46 22.9516 117.254 22.7447C117.048 22.5378 116.945 22.2891 116.945 21.9985C116.945 21.7053 117.049 21.4564 117.256 21.252C117.463 21.0476 117.711 20.9454 118.002 20.9454C118.295 20.9454 118.544 21.0482 118.748 21.2537C118.953 21.4593 119.055 21.7079 119.055 21.9995C119.055 22.291 118.952 22.5399 118.747 22.7459C118.541 22.952 118.292 23.055 118.001 23.055ZM118.001 17.2788C117.709 17.2788 117.46 17.1747 117.254 16.9665C117.048 16.7584 116.945 16.5081 116.945 16.2158C116.945 15.9235 117.049 15.6744 117.256 15.4683C117.463 15.2622 117.711 15.1592 118.002 15.1592C118.295 15.1592 118.544 15.2632 118.748 15.4712C118.953 15.6793 119.055 15.9294 119.055 16.2217C119.055 16.514 118.952 16.7633 118.747 16.9695C118.541 17.1757 118.292 17.2788 118.001 17.2788Z" fill="black"/>
</g>
<defs>
<filter id="filter0_d_2_41" x="0" y="0" width="148" height="48" filterUnits="userSpaceOnUse" color-interpolation-filters="sRGB">
<feFlood flood-opacity="0" result="BackgroundImageFix"/>
<feColorMatrix in="SourceAlpha" type="matrix" values="0 0 0 0 0 0 0 0 0 0 0 0 0 0 0 0 0 0 127 0" result="hardAlpha"/>
<feOffset dy="2"/>
<feGaussianBlur stdDeviation="4"/>
<feComposite in2="hardAlpha" operator="out"/>
<feColorMatrix type="matrix" values="0 0 0 0 0.101961 0 0 0 0 0.219608 0 0 0 0 0.458824 0 0 0 0.05 0"/>
<feBlend mode="normal" in2="BackgroundImageFix" result="effect1_dropShadow_2_41"/>
<feBlend mode="normal" in="SourceGraphic" in2="effect1_dropShadow_2_41" result="shape"/>
</filter>
</defs>
</svg>
