<svg width="20" height="20" viewBox="0 0 20 20" fill="none" xmlns="http://www.w3.org/2000/svg">
<path d="M4.699 16.7604C4.01018 16.7604 3.4212 16.5231 2.93206 16.0484C2.44294 15.5737 2.19505 14.9916 2.1884 14.3021H0.71875V4.63813C0.71875 4.25481 0.859486 3.92242 1.14096 3.64096C1.4224 3.35949 1.75479 3.21875 2.13812 3.21875H14.2006V6.63812H16.3533L19.2812 10.5413V14.3021H17.7423C17.7323 14.9916 17.4836 15.5737 16.9961 16.0484C16.5086 16.5231 15.9205 16.7604 15.2316 16.7604C14.5428 16.7604 13.9538 16.5231 13.4647 16.0484C12.9755 15.5737 12.7277 14.9916 12.721 14.3021H7.20471C7.19475 14.986 6.94685 15.5667 6.46102 16.0442C5.97517 16.5217 5.38783 16.7604 4.699 16.7604ZM4.69656 15.4506C5.0299 15.4506 5.31462 15.3326 5.55073 15.0965C5.78684 14.8603 5.9049 14.5756 5.9049 14.2423C5.9049 13.909 5.78684 13.6242 5.55073 13.3881C5.31462 13.152 5.0299 13.034 4.69656 13.034C4.36323 13.034 4.07851 13.152 3.8424 13.3881C3.60628 13.6242 3.48823 13.909 3.48823 14.2423C3.48823 14.5756 3.60628 14.8603 3.8424 15.0965C4.07851 15.3326 4.36323 15.4506 4.69656 15.4506ZM2.13812 12.8827H2.61812C2.85308 12.5243 3.14791 12.239 3.5026 12.0267C3.8573 11.8145 4.24845 11.7083 4.67606 11.7083C5.10367 11.7083 5.49815 11.8169 5.85948 12.034C6.22081 12.2511 6.51795 12.534 6.7509 12.8827H12.7812V4.63813H2.13812V12.8827ZM15.2292 15.4506C15.5625 15.4506 15.8472 15.3326 16.0833 15.0965C16.3194 14.8603 16.4375 14.5756 16.4375 14.2423C16.4375 13.909 16.3194 13.6242 16.0833 13.3881C15.8472 13.152 15.5625 13.034 15.2292 13.034C14.8958 13.034 14.6111 13.152 14.375 13.3881C14.1389 13.6242 14.0208 13.909 14.0208 14.2423C14.0208 14.5756 14.1389 14.8603 14.375 15.0965C14.6111 15.3326 14.8958 15.4506 15.2292 15.4506ZM14.2006 11.1458H17.9561L15.6436 8.0625H14.2006V11.1458Z" fill="black"/>
</svg>
