<svg width="20" height="20" viewBox="0 0 20 20" fill="none" xmlns="http://www.w3.org/2000/svg">
<path d="M9.99905 9.91463C9.04517 9.91463 8.26529 9.61168 7.65938 9.00578C7.05348 8.39987 6.75053 7.61998 6.75053 6.66609C6.75053 5.71222 7.05348 4.93199 7.65938 4.3254C8.26529 3.71882 9.04517 3.41553 9.99905 3.41553C10.9529 3.41553 11.734 3.71882 12.3422 4.3254C12.9505 4.93199 13.2546 5.71222 13.2546 6.66609C13.2546 7.61998 12.9505 8.39987 12.3422 9.00578C11.734 9.61168 10.9529 9.91463 9.99905 9.91463ZM3.20886 16.8562V14.7644C3.20886 14.215 3.34716 13.7425 3.62376 13.3469C3.90036 12.9512 4.25753 12.6508 4.69528 12.4454C5.63247 12.0254 6.53306 11.7105 7.39705 11.5005C8.26105 11.2905 9.12828 11.1855 9.99874 11.1855C10.8756 11.1855 11.7422 11.2939 12.5986 11.5109C13.455 11.7278 14.3496 12.0407 15.2824 12.4495C15.7391 12.6522 16.1056 12.9507 16.3818 13.3452C16.6581 13.7396 16.7963 14.2123 16.7963 14.7631V16.8562H3.20886ZM4.62824 15.4368H15.3719V14.7833C15.3719 14.5632 15.3059 14.3534 15.174 14.1537C15.042 13.9541 14.8788 13.8062 14.6844 13.7099C13.8088 13.2893 13.0071 13.0008 12.2793 12.8444C11.5515 12.688 10.7909 12.6098 9.99761 12.6098C9.2109 12.6098 8.44504 12.688 7.70003 12.8444C6.95501 13.0008 6.15402 13.2891 5.29705 13.7092C5.10117 13.8054 4.94074 13.9535 4.81574 14.1532C4.69074 14.353 4.62824 14.563 4.62824 14.7833V15.4368ZM9.99905 8.49526C10.5281 8.49526 10.9656 8.32258 11.3114 7.97721C11.6573 7.63187 11.8302 7.19455 11.8302 6.66526C11.8302 6.1346 11.6576 5.69689 11.3124 5.35211C10.9673 5.00732 10.5301 4.83492 10.0011 4.83492C9.47204 4.83492 9.03457 5.0074 8.6887 5.35234C8.34283 5.69727 8.1699 6.13409 8.1699 6.6628C8.1699 7.19287 8.3425 7.63079 8.6877 7.97657C9.03288 8.32236 9.46999 8.49526 9.99905 8.49526Z" fill="black"/>
</svg>
