<svg width="36" height="36" viewBox="0 0 36 36" fill="none" xmlns="http://www.w3.org/2000/svg">
<g filter="url(#filter0_d_2_78)">
<rect x="2" y="2" width="32" height="32" rx="4" fill="#E0EAFF"/>
<path d="M18.0007 26.3346C16.8479 26.3346 15.8652 25.9284 15.0527 25.1159C14.2402 24.3034 13.834 23.3207 13.834 22.168C13.834 21.5013 13.9798 20.8798 14.2715 20.3034C14.5632 19.727 14.9729 19.2374 15.5007 18.8346V12.168C15.5007 11.4735 15.7437 10.8832 16.2298 10.3971C16.7159 9.91102 17.3062 9.66797 18.0007 9.66797C18.6951 9.66797 19.2854 9.91102 19.7715 10.3971C20.2576 10.8832 20.5007 11.4735 20.5007 12.168V18.8346C21.0284 19.2374 21.4382 19.727 21.7298 20.3034C22.0215 20.8798 22.1673 21.5013 22.1673 22.168C22.1673 23.3207 21.7611 24.3034 20.9486 25.1159C20.1361 25.9284 19.1534 26.3346 18.0007 26.3346ZM17.1673 17.168H18.834V16.3346H18.0007V15.5013H18.834V13.8346H18.0007V13.0013H18.834V12.168C18.834 11.9319 18.7541 11.7339 18.5944 11.5742C18.4347 11.4145 18.2368 11.3346 18.0007 11.3346C17.7645 11.3346 17.5666 11.4145 17.4069 11.5742C17.2472 11.7339 17.1673 11.9319 17.1673 12.168V17.168Z" fill="black"/>
</g>
<defs>
<filter id="filter0_d_2_78" x="0" y="0" width="36" height="36" filterUnits="userSpaceOnUse" color-interpolation-filters="sRGB">
<feFlood flood-opacity="0" result="BackgroundImageFix"/>
<feColorMatrix in="SourceAlpha" type="matrix" values="0 0 0 0 0 0 0 0 0 0 0 0 0 0 0 0 0 0 127 0" result="hardAlpha"/>
<feOffset/>
<feGaussianBlur stdDeviation="1"/>
<feComposite in2="hardAlpha" operator="out"/>
<feColorMatrix type="matrix" values="0 0 0 0 0.815686 0 0 0 0 0.254902 0 0 0 0 0.254902 0 0 0 0.15 0"/>
<feBlend mode="normal" in2="BackgroundImageFix" result="effect1_dropShadow_2_78"/>
<feBlend mode="normal" in="SourceGraphic" in2="effect1_dropShadow_2_78" result="shape"/>
</filter>
</defs>
</svg>
