<svg width="36" height="36" viewBox="0 0 36 36" fill="none" xmlns="http://www.w3.org/2000/svg">
<g filter="url(#filter0_d_2_63)">
<rect x="2" y="2" width="32" height="32" rx="4" fill="#E0EAFF"/>
<path d="M17.9989 17.9146C17.0451 17.9146 16.2652 17.6117 15.6593 17.0058C15.0534 16.3999 14.7504 15.62 14.7504 14.6661C14.7504 13.7122 15.0534 12.932 15.6593 12.3254C16.2652 11.7188 17.0451 11.4155 17.9989 11.4155C18.9528 11.4155 19.7339 11.7188 20.3421 12.3254C20.9504 12.932 21.2545 13.7122 21.2545 14.6661C21.2545 15.62 20.9504 16.3999 20.3421 17.0058C19.7339 17.6117 18.9528 17.9146 17.9989 17.9146ZM11.2087 24.8562V22.7644C11.2087 22.215 11.347 21.7425 11.6236 21.3469C11.9002 20.9512 12.2574 20.6508 12.6952 20.4454C13.6324 20.0254 14.5329 19.7105 15.3969 19.5005C16.2609 19.2905 17.1282 19.1855 17.9986 19.1855C18.8754 19.1855 19.7421 19.2939 20.5985 19.5109C21.4549 19.7278 22.3495 20.0407 23.2823 20.4495C23.739 20.6522 24.1054 20.9507 24.3817 21.3452C24.658 21.7396 24.7962 22.2123 24.7962 22.7631V24.8562H11.2087ZM12.6281 23.4368H23.3718V22.7833C23.3718 22.5632 23.3058 22.3534 23.1739 22.1537C23.0419 21.9541 22.8787 21.8062 22.6843 21.7099C21.8087 21.2893 21.007 21.0008 20.2792 20.8444C19.5514 20.688 18.7908 20.6098 17.9975 20.6098C17.2108 20.6098 16.4449 20.688 15.6999 20.8444C14.9549 21.0008 14.1539 21.2891 13.2969 21.7092C13.1011 21.8054 12.9406 21.9535 12.8156 22.1532C12.6906 22.353 12.6281 22.563 12.6281 22.7833V23.4368ZM17.9989 16.4953C18.528 16.4953 18.9654 16.3226 19.3113 15.9772C19.6572 15.6319 19.8301 15.1945 19.8301 14.6653C19.8301 14.1346 19.6575 13.6969 19.3123 13.3521C18.9671 13.0073 18.53 12.8349 18.001 12.8349C17.4719 12.8349 17.0344 13.0074 16.6886 13.3523C16.3427 13.6973 16.1698 14.1341 16.1698 14.6628C16.1698 15.1929 16.3424 15.6308 16.6876 15.9766C17.0328 16.3224 17.4699 16.4953 17.9989 16.4953Z" fill="black"/>
</g>
<defs>
<filter id="filter0_d_2_63" x="0" y="0" width="36" height="36" filterUnits="userSpaceOnUse" color-interpolation-filters="sRGB">
<feFlood flood-opacity="0" result="BackgroundImageFix"/>
<feColorMatrix in="SourceAlpha" type="matrix" values="0 0 0 0 0 0 0 0 0 0 0 0 0 0 0 0 0 0 127 0" result="hardAlpha"/>
<feOffset/>
<feGaussianBlur stdDeviation="1"/>
<feComposite in2="hardAlpha" operator="out"/>
<feColorMatrix type="matrix" values="0 0 0 0 0.815686 0 0 0 0 0.254902 0 0 0 0 0.254902 0 0 0 0.15 0"/>
<feBlend mode="normal" in2="BackgroundImageFix" result="effect1_dropShadow_2_63"/>
<feBlend mode="normal" in="SourceGraphic" in2="effect1_dropShadow_2_63" result="shape"/>
</filter>
</defs>
</svg>
