<svg width="20" height="20" viewBox="0 0 20 20" fill="none" xmlns="http://www.w3.org/2000/svg">
<path d="M16.25 17.9167L15.0833 16.75L16 15.8333H9.83329C9.66663 16.3333 9.36802 16.7361 8.93746 17.0417C8.5069 17.3472 8.02774 17.5 7.49996 17.5C6.97218 17.5 6.49649 17.3472 6.07288 17.0417C5.64927 16.7361 5.34718 16.3333 5.16663 15.8333H4.16663C3.47218 15.8333 2.8819 15.5903 2.39579 15.1042C1.90968 14.6181 1.66663 14.0278 1.66663 13.3333V8.33333H6.66663V5.83333H1.66663V4.16666H12.5C12.9583 4.16666 13.3507 4.32986 13.677 4.65625C14.0034 4.98264 14.1666 5.375 14.1666 5.83333V14.1667H15.9583L15.0833 13.2917L16.25 12.0833L19.1666 15L16.25 17.9167ZM8.33329 8.33333H12.5V5.83333H8.33329V8.33333ZM7.49996 15.8333C7.73607 15.8333 7.93399 15.7535 8.09371 15.5937C8.25343 15.434 8.33329 15.2361 8.33329 15C8.33329 14.7639 8.25343 14.566 8.09371 14.4062C7.93399 14.2465 7.73607 14.1667 7.49996 14.1667C7.26385 14.1667 7.06593 14.2465 6.90621 14.4062C6.74649 14.566 6.66663 14.7639 6.66663 15C6.66663 15.2361 6.74649 15.434 6.90621 15.5937C7.06593 15.7535 7.26385 15.8333 7.49996 15.8333ZM5.16663 14.1667C5.34718 13.6667 5.64927 13.2639 6.07288 12.9583C6.49649 12.6528 6.97218 12.5 7.49996 12.5C8.02774 12.5 8.5069 12.6528 8.93746 12.9583C9.36802 13.2639 9.66663 13.6667 9.83329 14.1667H12.5V10H3.33329V13.3333C3.33329 13.5694 3.41315 13.7674 3.57288 13.9271C3.7326 14.0868 3.93052 14.1667 4.16663 14.1667H5.16663ZM5.16663 10H3.33329H12.5H5.16663Z" fill="black"/>
</svg>
